PathFileType  4	(X/Y/Z) C:\Users\antoi\Documents\MyRepositories\mobilecap\ResultsAnalysis
DataRate	CameraRate	NumFrames	NumMarkers	Units	OrigDataRate	OrigDataStartFrame	OrigNumFrames
100.0	100.0	6	51	mm	100.0	39	311
Frame#	Time	r_knee			r_shank_antsup			r_ankle			r_calc			r_5meta			r_toe			L_knee			L_shank_antsup			L_ankle			L_calc			L_5meta			L_toe			r_sh2			r_sh3			r_sh4			L_sh2			L_sh3			r_thigh1			r_thigh2			r_thigh3			r_thigh4			r_thigh5			L_thigh1			L_thigh2			L_thigh3			L_thigh4			r.ASIS			r.PSIS			L.ASIS			L.PSIS			C7			R_Shoulder			L_Shoulder			R_Sternum			L_Sternum			R_humerus			R_elbow_med			R_elbow_lat			R_forearm			R_wrist_radius			R_wrist_ulna			L_humerus			L_elbow_med			L_elbow_lat			L_forearm			L_wrist_radius			L_wrist_ulna			R_HJC			L_HJC			R_HJC_reg			L_HJC_reg			
		X1	Y1	Z1	X2	Y2	Z2	X3	Y3	Z3	X4	Y4	Z4	X5	Y5	Z5	X6	Y6	Z6	X7	Y7	Z7	X8	Y8	Z8	X9	Y9	Z9	X10	Y10	Z10	X11	Y11	Z11	X12	Y12	Z12	X13	Y13	Z13	X14	Y14	Z14	X15	Y15	Z15	X16	Y16	Z16	X17	Y17	Z17	X18	Y18	Z18	X19	Y19	Z19	X20	Y20	Z20	X21	Y21	Z21	X22	Y22	Z22	X23	Y23	Z23	X24	Y24	Z24	X25	Y25	Z25	X26	Y26	Z26	X27	Y27	Z27	X28	Y28	Z28	X29	Y29	Z29	X30	Y30	Z30	X31	Y31	Z31	X32	Y32	Z32	X33	Y33	Z33	X34	Y34	Z34	X35	Y35	Z35	X36	Y36	Z36	X37	Y37	Z37	X38	Y38	Z38	X39	Y39	Z39	X40	Y40	Z40	X41	Y41	Z41	X42	Y42	Z42	X43	Y43	Z43	X44	Y44	Z44	X45	Y45	Z45	X46	Y46	Z46	X47	Y47	Z47	X48	Y48	Z48	X49	Y49	Z49	X50	Y50	Z50	X51	Y51	Z51	

39	0.38000000	-1157.84660	780.56280	-432.43598	-1126.78997	716.42580	-432.28620	-1203.48761	391.41972	-441.08994	-1257.65662	361.31689	-483.51655	-1095.57096	350.16141	-412.61354	-1056.17258	367.85072	-466.42287	-1131.33688	773.89308	-702.75263	-1104.52251	686.09108	-691.52856	-1207.54280	402.05348	-704.96622	-1266.07167	360.31335	-660.72330	-1107.83412	351.97938	-733.70023	-1057.30931	367.69830	-680.20249	-1150.11075	606.17312	-421.46065	-1196.20472	736.01137	-406.51669	-1227.74059	621.03853	-401.98659	-1177.25895	717.27746	-738.61890	-1204.03247	594.93882	-742.19351	-1090.34775	1027.82234	-382.51196	-1097.21719	913.68867	-401.89154	-1206.65222	916.78266	-424.82328	-1204.07770	1029.89277	-395.21293	-1161.29178	894.02805	-401.95218	-1070.77368	1049.97069	-754.22951	-1070.62198	912.75163	-726.94514	-1181.61709	1044.19872	-765.68795	-1186.30201	914.12882	-719.79387	-1032.62725	1225.68995	-456.30833	-1236.85358	1278.88538	-535.81153	-1028.24225	1229.10862	-676.19991	-1233.62912	1280.07319	-618.34961	-1078.16360	1710.09908	-551.03427	-1031.61378	1671.36765	-411.46608	-1030.58762	1683.09379	-689.59802	-966.63756	1629.49767	-528.74089	-967.40179	1628.63028	-570.57395	-1046.69042	1568.60806	-336.40117	-1217.53107	1423.46813	-307.41310	-1176.59030	1429.01600	-253.56066	-1132.51804	1344.84347	-236.80781	-1116.51435	1201.61205	-225.05260	-1146.04553	1202.91684	-201.29821	-1054.55906	1603.33839	-776.64602	-1199.24960	1435.00024	-819.98279	-1158.14403	1456.11843	-871.34641	-1124.41903	1356.28801	-901.73348	-1118.23853	1229.08784	-920.92574	-1146.99839	1236.42611	-948.83038	-1125.26477	1148.35284	-466.59286	-1118.12922	1153.27801	-673.91905	-1111.08061	1166.51158	-490.32564	-1105.41396	1168.59901	-635.37435	
40	0.39000000	-1156.76354	780.34673	-432.40277	-1125.63365	716.11501	-432.19030	-1203.46052	391.49111	-440.77109	-1257.71553	361.27969	-483.50218	-1095.62470	350.20064	-412.63166	-1056.22332	367.97441	-466.36743	-1130.04174	773.63373	-702.94457	-1103.32297	685.62977	-691.52834	-1207.51965	402.05083	-705.05674	-1266.06807	360.33810	-660.78358	-1107.84711	351.97468	-733.68869	-1057.34204	367.71475	-680.20061	-1149.17136	605.87862	-421.66268	-1194.88450	735.86354	-406.49029	-1226.90083	621.06230	-401.75534	-1176.03993	717.03981	-738.79155	-1203.29269	594.87611	-742.28413	-1089.90310	1027.77530	-382.62849	-1096.50331	913.57857	-401.74982	-1205.97792	916.51084	-424.88436	-1203.36486	1029.52052	-395.39772	-1160.57329	893.79026	-401.74217	-1070.15538	1049.83714	-754.07524	-1069.78648	912.48321	-726.80898	-1182.35394	1043.22491	-764.92507	-1185.45433	913.69203	-719.94867	-1032.22744	1225.18849	-456.41506	-1236.07334	1279.74869	-535.83643	-1027.92976	1228.43753	-676.18047	-1232.83745	1280.86893	-618.17786	-1073.26635	1709.61480	-550.95492	-1026.65572	1670.79640	-411.48270	-1026.05489	1682.46231	-689.43410	-962.41768	1628.46334	-528.80243	-963.23508	1627.49374	-570.73083	-1044.28624	1569.08193	-335.66581	-1218.93708	1428.64361	-306.85077	-1178.48156	1433.68131	-252.66560	-1136.90625	1348.46695	-234.61479	-1125.15525	1205.17176	-221.51431	-1154.68497	1207.39931	-197.95055	-1052.05300	1604.35926	-777.09766	-1200.84868	1439.92783	-820.92923	-1159.85109	1460.37603	-872.14041	-1129.23499	1360.05030	-904.13142	-1126.84593	1232.78551	-924.53479	-1155.37900	1241.75290	-952.96721	-1125.37136	1148.48314	-466.52266	-1118.32296	1153.24117	-673.85574	-1111.12613	1166.55795	-490.38838	-1105.43003	1168.53051	-635.35154	
41	0.40000000	-1155.50106	780.13646	-432.33205	-1124.21467	715.73909	-432.19076	-1203.49178	391.43530	-440.76644	-1257.74212	361.26350	-483.45413	-1095.65437	350.27256	-412.66415	-1056.25406	368.13040	-466.34123	-1128.61186	773.33752	-703.15514	-1102.04952	685.19480	-691.63540	-1207.49771	402.04557	-705.12742	-1266.14928	360.28317	-660.72048	-1107.86283	351.97380	-733.67651	-1057.37397	367.71066	-680.18547	-1148.18713	605.61518	-421.86057	-1193.38876	735.51280	-406.53271	-1225.97544	621.01458	-401.81172	-1175.11956	716.03618	-737.43969	-1202.36515	594.86031	-742.41589	-1089.33988	1027.71486	-382.89572	-1095.67114	913.55909	-401.65449	-1205.16533	916.15546	-424.83857	-1202.68988	1029.30568	-395.48583	-1159.76686	893.52939	-401.63264	-1069.59921	1049.57841	-753.90545	-1068.86251	912.24458	-726.88395	-1183.23065	1042.21592	-763.13048	-1184.61965	913.05107	-719.93440	-1031.88807	1224.67670	-456.45989	-1235.28442	1280.67648	-535.81016	-1027.70915	1227.77149	-676.24863	-1232.35466	1281.83947	-618.21323	-1068.14366	1709.06026	-550.90503	-1021.55807	1670.04937	-411.53923	-1021.35236	1681.72397	-689.40571	-958.03611	1627.27818	-528.93237	-958.86679	1626.19640	-570.84089	-1041.77727	1569.60115	-334.91580	-1220.25768	1433.86369	-306.59606	-1180.31537	1438.38107	-252.10763	-1141.20937	1352.31659	-232.61042	-1133.69232	1208.68248	-218.57991	-1163.20683	1212.12507	-195.00465	-1049.40159	1605.33574	-777.53721	-1202.50593	1445.01253	-821.67891	-1161.53335	1464.70306	-872.81800	-1133.92347	1363.94832	-906.42093	-1135.41877	1236.78718	-927.91330	-1163.88121	1246.85011	-956.09372	-1125.63237	1148.66713	-466.50458	-1118.68378	1153.26848	-673.84459	-1110.99628	1166.48659	-490.17483	-1105.84084	1168.53276	-635.16916	
42	0.41000000	-1153.98266	779.87782	-432.27996	-1122.50173	715.26220	-432.30045	-1203.56992	391.34217	-440.80325	-1257.78201	361.25732	-483.43732	-1095.65127	350.35196	-412.66453	-1056.26014	368.27400	-466.37375	-1127.02618	773.01201	-703.26441	-1100.60720	684.70558	-691.76989	-1207.46783	402.04242	-705.18137	-1266.23408	360.21113	-660.60007	-1107.88031	351.98128	-733.67104	-1057.36693	367.73368	-680.17112	-1147.05865	605.34473	-421.87884	-1191.48821	735.23947	-406.21015	-1224.74567	620.94949	-401.78329	-1174.10270	714.86140	-735.58692	-1201.21646	594.74150	-742.52051	-1088.68321	1027.53996	-383.10370	-1094.77423	913.60236	-401.43257	-1204.18510	915.70338	-424.65817	-1202.05249	1029.10935	-395.52830	-1158.79759	893.15583	-401.72941	-1069.03852	1049.31051	-753.74191	-1067.86247	911.99325	-726.95958	-1183.19408	1041.56632	-762.23368	-1183.66917	912.34137	-719.85587	-1031.50998	1224.05566	-456.46490	-1234.48704	1281.67155	-535.70288	-1027.50251	1227.06230	-676.17367	-1231.87965	1282.79741	-618.22886	-1062.83389	1708.45083	-550.82338	-1016.33694	1669.16498	-411.52653	-1016.51924	1680.92615	-689.44473	-953.42592	1626.05437	-528.92971	-954.36635	1624.81266	-570.90459	-1039.20622	1570.11345	-334.19852	-1221.45386	1439.06670	-306.77707	-1182.05172	1443.07433	-251.82608	-1145.42513	1356.28783	-230.94006	-1141.99480	1212.37117	-215.90772	-1171.54770	1217.09937	-192.38323	-1046.68816	1606.08194	-777.87408	-1204.10051	1450.11434	-822.16087	-1163.14980	1469.06918	-873.43079	-1138.55835	1367.96178	-908.39272	-1143.71483	1241.06135	-931.14647	-1172.40511	1251.95563	-958.31868	-1125.93689	1148.82094	-466.42382	-1119.08101	1153.28044	-673.77002	-1110.90200	1166.54267	-489.82549	-1106.32207	1168.51993	-634.78534	
43	0.42000000	-1152.17365	779.61328	-432.15234	-1120.45967	714.71990	-432.31429	-1203.59263	391.30387	-440.77150	-1257.84798	361.26712	-483.45466	-1095.65984	350.40952	-412.62774	-1056.26229	368.35838	-466.40988	-1125.27216	772.67201	-703.24386	-1098.94705	684.08142	-691.82870	-1207.41357	402.06519	-705.24947	-1266.19729	360.24935	-660.60643	-1107.88618	352.00168	-733.66699	-1057.33499	367.80084	-680.17667	-1145.68036	605.00248	-421.73121	-1189.21242	735.14219	-405.75996	-1222.96178	620.98909	-401.24001	-1172.12837	714.87347	-735.99707	-1199.88795	594.60160	-742.73261	-1087.94378	1027.24042	-383.12590	-1093.77956	913.49491	-401.23224	-1203.07036	915.21088	-424.43403	-1201.60829	1028.39403	-395.81746	-1157.63663	892.76033	-401.80206	-1068.47283	1049.05333	-753.67850	-1066.77891	911.78489	-726.97159	-1181.62221	1041.50946	-763.44842	-1182.52322	911.76605	-720.00060	-1031.19116	1223.33332	-456.55650	-1233.72547	1282.75966	-535.58915	-1027.30139	1226.27440	-675.94494	-1231.22400	1283.65986	-618.02924	-1057.35890	1707.78158	-550.76229	-1011.03144	1668.16754	-411.46513	-1011.56622	1680.01479	-689.41806	-948.65822	1624.70153	-528.81952	-949.77951	1623.32148	-571.06729	-1036.61368	1570.51649	-333.61398	-1222.41787	1444.25728	-307.29675	-1183.58634	1447.75915	-251.72566	-1149.48585	1360.27719	-229.58730	-1150.10231	1216.54731	-213.28164	-1179.67357	1222.34393	-190.04229	-1043.90934	1606.64544	-778.24840	-1205.28704	1455.11422	-822.36171	-1164.65642	1473.36931	-873.89747	-1143.05973	1371.98629	-909.95709	-1151.65058	1245.60181	-934.05448	-1180.74213	1257.20574	-959.81383	-1126.27957	1148.93325	-466.26972	-1119.51410	1153.24720	-673.62196	-1111.09027	1166.87320	-489.60976	-1106.69836	1168.45343	-634.36655	
44	0.43000000	-1150.07186	779.37135	-431.86774	-1118.13808	714.17794	-432.12224	-1203.52962	391.33283	-440.70127	-1257.87755	361.28535	-483.40479	-1095.70966	350.45286	-412.59383	-1056.25651	368.39006	-466.39364	-1123.33318	772.25445	-703.08579	-1097.08287	683.39245	-691.84588	-1207.33699	402.13114	-705.33935	-1266.08091	360.41182	-660.76679	-1107.87402	352.03453	-733.65077	-1057.30748	367.88451	-680.20269	-1144.12364	604.54371	-421.58568	-1186.77699	735.00086	-405.62142	-1220.91125	621.08586	-400.49208	-1169.47824	715.63464	-738.02347	-1198.49635	594.58138	-742.92454	-1087.10872	1026.99554	-383.00659	-1092.53045	913.17602	-401.25357	-1201.87223	914.62310	-424.28726	-1201.40069	1027.18782	-396.20500	-1156.29579	892.44168	-401.65909	-1067.99322	1048.72355	-753.60083	-1065.55421	911.66386	-727.11096	-1179.44042	1041.72449	-765.46293	-1181.28308	911.14266	-720.16278	-1031.05533	1222.60985	-456.77170	-1233.03230	1283.93379	-535.48263	-1027.18420	1225.43069	-675.75903	-1230.38715	1284.54770	-617.75486	-1051.68647	1707.02835	-550.81469	-1005.66989	1667.02966	-411.46374	-1006.47889	1678.94072	-689.44225	-944.08833	1622.91575	-528.90136	-945.06125	1621.65066	-571.32221	-1033.93440	1570.74884	-333.21017	-1223.04061	1449.37659	-307.94333	-1184.87546	1452.36483	-251.87565	-1153.32591	1364.23468	-228.51170	-1157.94551	1220.89081	-211.05978	-1187.52320	1227.63464	-188.08696	-1041.02408	1607.15256	-778.65364	-1206.16765	1459.98017	-822.27915	-1165.97705	1477.59672	-874.13782	-1147.28181	1375.99434	-911.26252	-1159.54554	1250.23532	-936.11302	-1188.59758	1262.54894	-961.03950	-1126.72572	1149.07044	-466.13312	-1120.05554	1153.22210	-673.49173	-1111.62672	1167.29184	-489.71627	-1106.98121	1168.36984	-634.20316	
